<?xml version="1.0" encoding="UTF-8" standalone="no"?>
<!-- Created with Inkscape (http://www.inkscape.org/) -->

<svg
   xmlns:dc="http://purl.org/dc/elements/1.1/"
   xmlns:cc="http://creativecommons.org/ns#"
   xmlns:rdf="http://www.w3.org/1999/02/22-rdf-syntax-ns#"
   xmlns:svg="http://www.w3.org/2000/svg"
   xmlns="http://www.w3.org/2000/svg"
   xmlns:xlink="http://www.w3.org/1999/xlink"
   xmlns:sodipodi="http://sodipodi.sourceforge.net/DTD/sodipodi-0.dtd"
   xmlns:inkscape="http://www.inkscape.org/namespaces/inkscape"
   width="765"
   height="990"
   id="svg2"
   version="1.1"
   inkscape:version="0.48.4 r9939"
   inkscape:export-filename="C:\Users\JSalvaG\Documentos\UniMar\Semestre IV Feb-Jun 2014\Bases De Datos I\AlquilaVehiculo\fondoLogIn.png"
   inkscape:export-xdpi="90"
   inkscape:export-ydpi="90"
   sodipodi:docname="Documento nuevo 1">
  <defs
     id="defs4">
    <linearGradient
       id="linearGradient3811">
      <stop
         id="stop3813"
         offset="0"
         style="stop-color:#ff8700;stop-opacity:1;" />
      <stop
         style="stop-color:#7fc3ff;stop-opacity:1;"
         offset="0.58859742"
         id="stop3815" />
      <stop
         id="stop3817"
         offset="1"
         style="stop-color:#00ff00;stop-opacity:1;" />
    </linearGradient>
    <linearGradient
       id="linearGradient3781">
      <stop
         style="stop-color:#ff8700;stop-opacity:1;"
         offset="0"
         id="stop3783" />
      <stop
         id="stop3809"
         offset="0.5"
         style="stop-color:#7fc3ff;stop-opacity:1;" />
      <stop
         style="stop-color:#00ff00;stop-opacity:1;"
         offset="1"
         id="stop3785" />
    </linearGradient>
    <linearGradient
       inkscape:collect="always"
       xlink:href="#linearGradient3811"
       id="linearGradient3839"
       gradientUnits="userSpaceOnUse"
       x1="81.453964"
       y1="388.18689"
       x2="272.20999"
       y2="499.30368" />
  </defs>
  <sodipodi:namedview
     id="base"
     pagecolor="#ffffff"
     bordercolor="#666666"
     borderopacity="1.0"
     inkscape:pageopacity="0.0"
     inkscape:pageshadow="2"
     inkscape:zoom="4.2436507"
     inkscape:cx="177.17183"
     inkscape:cy="587.9801"
     inkscape:document-units="px"
     inkscape:current-layer="layer1"
     showgrid="false"
     showborder="false"
     inkscape:window-width="1360"
     inkscape:window-height="705"
     inkscape:window-x="-8"
     inkscape:window-y="-8"
     inkscape:window-maximized="1" />
  <metadata
     id="metadata7">
    <rdf:RDF>
      <cc:Work
         rdf:about="">
        <dc:format>image/svg+xml</dc:format>
        <dc:type
           rdf:resource="http://purl.org/dc/dcmitype/StillImage" />
        <dc:title></dc:title>
      </cc:Work>
    </rdf:RDF>
  </metadata>
  <g
     inkscape:label="Capa 1"
     inkscape:groupmode="layer"
     id="layer1"
     transform="translate(0,-62.362183)">
    <rect
       style="color:#000000;fill:#0088ff;fill-opacity:1;fill-rule:nonzero;stroke:none;stroke-width:5;marker:none;visibility:visible;display:inline;overflow:visible;enable-background:accumulate"
       id="rect2985"
       width="200"
       height="120"
       x="77.14286"
       y="321.42856"
       transform="translate(0,62.362183)" />
    <path
       style="font-size:medium;font-style:normal;font-variant:normal;font-weight:normal;font-stretch:normal;text-indent:0;text-align:start;text-decoration:none;line-height:normal;letter-spacing:normal;word-spacing:normal;text-transform:none;direction:ltr;block-progression:tb;writing-mode:lr-tb;text-anchor:start;baseline-shift:baseline;color:#000000;fill:url(#linearGradient3839);fill-opacity:1;stroke:none;stroke-width:15.10000038;marker:none;visibility:visible;display:inline;overflow:visible;enable-background:accumulate;font-family:Sans;-inkscape-font-specification:Sans"
       d="m 110.23207,383.99683 c -22.036005,18.99481 -24.045023,24.33573 -29.82582,40.03442 -5.780797,15.69869 -3.570106,30.59527 5.875,39.90625 9.445106,9.31098 24.22133,12.45933 41.09375,10.25 16.87242,-2.20933 36.3271,-9.82502 56.6875,-23.6875 36.2809,-24.70203 59.03274,-31.60812 68.59375,-30.40625 4.78051,0.60093 6.32236,2.02905 7.75,4.96875 1.42764,2.9397 2.05366,8.13117 1.15625,14.5625 -1.79483,12.86265 -9.36119,29.97917 -18.75,42.875 -4.69441,6.44792 -9.82493,11.8721 -14.5625,15.34375 -4.73757,3.47165 -7.64563,5.91997 -10.29052,5.70948 l 32.35025,0.21342 c -5.90647,-4.27321 -4.84271,0.62662 4.72152,-12.39165 10.76933,-14.79202 19.1634,-33.13494 21.46875,-49.65625 1.15267,-8.26065 0.86332,-16.26013 -2.53125,-23.25 -3.39457,-6.98987 -10.58704,-12.23513 -19.40625,-13.34375 -17.63842,-2.21724 -41.54023,7.37033 -79,32.875 -18.76915,12.77907 -36.27471,19.40106 -50.15625,21.21875 -13.88154,1.81769 -23.6712,-1.24022 -28.53125,-6.03125 -4.860049,-4.79103 -6.717314,-11.89065 -2.28125,-23.9375 4.436064,-12.04685 15.81767,-28.02873 36.59375,-45.9375 z"
       id="path3799"
       inkscape:connector-curvature="0"
       sodipodi:nodetypes="cssssssssscccssssssscc" />
  </g>
</svg>
